<svg
   xmlns="http://www.w3.org/2000/svg"
   xmlns:sodipodi="http://sodipodi.sourceforge.net/DTD/sodipodi-0.dtd"
   width="600"
   height="300"
   version="1.1"
>
  <defs>
    <filter id="blur" x="0" y="0" width="200%" height="200%">
      <feOffset  dx="5" dy="15" />
      <feGaussianBlur stdDeviation="2"/>
    </filter>
  </defs>

  <polygon points="300,175 600,200 300,225 0,200" fill="#000000" opacity="0.3" filter="url(#blur)"/> 
  <polygon points="300,175 600,200 300,225 0,200" fill="#e6fff4" opacity="1" /> 
  <line x1="267" y1="50" x2="267" y2="200" stroke="#000000" stroke-width="2"/>
  <line x1="334" y1="50" x2="334" y2="200" stroke="#000000" stroke-width="2" />
  <line x1="200" y1="100" x2="400" y2="100" stroke="#000000" stroke-width="2"/>
  <line x1="200" y1="150" x2="400" y2="150" stroke="#000000" stroke-width="2" />
  <line x1="207" y1="110" x2="254" y2="140" stroke="#920000" stroke-width="3" />
  <line x1="254" y1="110" x2="207" y2="140" stroke="#920000" stroke-width="3" />
  <line x1="277" y1="110" x2="324" y2="140" stroke="#920000" stroke-width="3" />
  <line x1="324" y1="110" x2="277" y2="140" stroke="#920000" stroke-width="3" />
  <text x="340" y="80" fill="#005834" font-family="sans-serif" font-size="30">Tic</text>
  <text x="340" y="135" fill="#005834" font-family="sans-serif" font-size="30">Tac</text>
  <text x="340" y="185" fill="#005834" font-family="sans-serif" font-size="30">Toe</text>
</svg>
